<?xml version="1.0" encoding="UTF-8"?>
<!-- Generator: Adobe Illustrator 17.0.1, SVG Export Plug-In . SVG Version: 6.00 Build 0)  -->
<svg id="svg2" width="86px" height="86px" enable-background="new 0 0 86 86" version="1.1" viewBox="0 0 86 86" xml:space="preserve" xmlns="http://www.w3.org/2000/svg" xmlns:cc="http://creativecommons.org/ns#" xmlns:dc="http://purl.org/dc/elements/1.1/" xmlns:rdf="http://www.w3.org/1999/02/22-rdf-syntax-ns#" xmlns:xlink="http://www.w3.org/1999/xlink"><metadata id="metadata25"><rdf:RDF><cc:Work rdf:about=""><dc:format>image/svg+xml</dc:format><dc:type rdf:resource="http://purl.org/dc/dcmitype/StillImage"/><dc:title/></cc:Work></rdf:RDF></metadata><defs id="defs23"><linearGradient id="linearGradient4186" x1="83.449" x2="11.36" y1="42.271" y2="57.941" gradientUnits="userSpaceOnUse"><stop id="stop4184" stop-color="#b3b3b3" offset="0"/><stop id="stop4182" stop-color="#4d4d4d" offset="1"/></linearGradient></defs><g id="Layer_1" transform="translate(.12884 .12884)"><path id="path11" d="m43 0.3c-23.583 0-42.7 19.118-42.7 42.7v41.277c0 0.786 0.637 1.423 1.423 1.423h82.553c0.786 0 1.423-0.637 1.423-1.423v-41.277c1e-3 -23.582-19.116-42.7-42.699-42.7z" fill="url(#linearGradient4186)"/></g><g id="g25" transform="matrix(1.2108 0 0 1.2108 16.071 14.682)"><metadata id="metadata7"><rdf:RDF><cc:Work rdf:about=""><dc:format>image/svg+xml</dc:format><dc:type rdf:resource="http://purl.org/dc/dcmitype/StillImage"/><dc:title/></cc:Work></rdf:RDF></metadata><g id="layer1" transform="translate(-248.53 -301.05)"><path id="path3839" d="m271.09 318.22c-2.6878 0-4.8554 2.1368-4.9062 4.8125h9.8438v-0.125c-0.13123-2.6207-2.3135-4.6875-4.9375-4.6875z" fill="#fff"/><path id="rect3049" d="m252 321.28c-1.9299 0-3.4688 1.6253-3.4688 3.625v22.781c0 1.9997 1.5388 3.5938 3.4688 3.5938h38.188c1.9299 0 3.5-1.594 3.5-3.5938v-22.781c0-1.9997-1.5701-3.625-3.5-3.625h-38.188zm1.6562 1.8438h34.625c1.7498 0 3.1562 1.2967 3.1562 2.9062v18.344c0 1.6095-1.4064 2.9062-3.1562 2.9062h-34.625c-1.7498 0-3.1562-1.2967-3.1562-2.9062v-18.344c0-1.6095 1.4064-2.9062 3.1562-2.9062z" fill="#fff"/><path id="path3877" d="m262.39 304.34 8.0812 16.92" fill="none" stroke="#fff"/><path id="path3839-4" transform="matrix(.43875 0 0 .43875 143.73 163.54)" d="m274.51 318.61a4.9245 4.9245 0 0 1-4.8629 4.9241 4.9245 4.9245 0 0 1-4.9846-4.8009 4.9245 4.9245 0 0 1 4.7382-5.0442 4.9245 4.9245 0 0 1 5.1031 4.6747" fill="#fff"/><path id="path3877-3" d="m280.32 304.22-8.0812 16.92" fill="none" stroke="#fff"/><path id="path3839-4-1" transform="matrix(.43875 0 0 .43875 162.54 163.42)" d="m274.51 318.61a4.9245 4.9245 0 0 1-4.8629 4.9241 4.9245 4.9245 0 0 1-4.9846-4.8009 4.9245 4.9245 0 0 1 4.7382-5.0442 4.9245 4.9245 0 0 1 5.1031 4.6747" fill="#fff"/></g></g></svg>
