<?xml version="1.0" encoding="UTF-8"?>
<!-- Created with Inkscape (http://www.inkscape.org/) -->
<svg id="svg8" width="400" height="578" version="1.1" viewBox="0 0 105.83 152.93" xml:space="preserve" xmlns="http://www.w3.org/2000/svg" xmlns:cc="http://creativecommons.org/ns#" xmlns:dc="http://purl.org/dc/elements/1.1/" xmlns:rdf="http://www.w3.org/1999/02/22-rdf-syntax-ns#"><metadata id="metadata5"><rdf:RDF><cc:Work rdf:about=""><dc:format>image/svg+xml</dc:format><dc:type rdf:resource="http://purl.org/dc/dcmitype/StillImage"/><dc:creator><cc:Agent><dc:title>Mirian Margiani</dc:title></cc:Agent></dc:creator></cc:Work></rdf:RDF></metadata><g id="layer1"><path id="path3" d="m20.36 76.465v37.956h4.5809v-2.225c0-1.2943 0.16425-2.3892 0.39265-2.6176 0.25676-0.25677 1.6117-0.39265 3.9149-0.39265 4.1211 0 4.1997 0.0608 4.1997 3.2505v1.9847h4.5809v-16.687h28.794v16.687h3.272v-2.1184c0-2.015 0.04715-2.1428 0.96537-2.6176 1.2195-0.63063 7.8505-0.71417 8.4581-0.10655 0.2284 0.2284 0.39265 1.3234 0.39265 2.6176v2.225h5.5625v-75.911h-5.5625v2.225c0 1.2943-0.16425 2.3892-0.39265 2.6176-0.60761 0.60761-7.2386 0.52407-8.4581-0.10655-0.91821-0.47482-0.96537-0.60269-0.96537-2.6176v-2.1184h-3.272v3.5992h-28.794v-3.5992h-4.5809v2.225c0 1.2943-0.16425 2.3892-0.39265 2.6176-0.53846 0.53846-7.1836 0.53846-7.722 0-0.2284-0.2284-0.39265-1.3234-0.39265-2.6176v-2.225h-4.5809zm46.299-5.8897v20.123l-28.63 0.1705v-40.587l14.315 0.0852 14.315 0.0853zm-33.725-16.5c0.40133 0.40134 0.51418 1.259 0.51418 3.9079 0 4.2628-0.14427 4.4124-4.2537 4.4124-4.1292 0-4.2537-0.13263-4.2537-4.534 0-2.2978 0.136-3.6512 0.39265-3.9079 0.62971-0.62971 6.9503-0.52865 7.6005 0.12154zm46.585-0.12154c0.47668 0.47667 0.53739 7.0522 0.07188 7.7875-0.48902 0.77243-7.4056 0.70066-8.6105-0.08935-0.85689-0.56182-0.88485-0.67652-0.88485-3.6303 0-4.233 0.20301-4.3944 5.5788-4.4346 2.2804-0.017 3.5853 0.10743 3.8447 0.36683zm-46.611 18.543c0.44171 0.36698 0.54052 1.0976 0.54052 3.9967 0 3.1726-0.0669 3.5835-0.6329 3.8864-0.99311 0.5315-7.0586 0.43664-7.5186-0.11756-0.24923-0.30028-0.34681-1.6676-0.28548-3.9993 0.08954-3.4035 0.12545-3.5599 0.91123-3.9725 1.0873-0.57086 6.2327-0.41892 6.9852 0.20629zm46.684 0.04174c0.46489 0.73621 0.40352 7.3113-0.07269 7.7875-0.581 0.581-6.8508 0.51938-8.2888-0.08147l-1.1347-0.47411v-3.2487c0-3.567 0.13511-3.853 2.047-4.3333 1.8359-0.4612 7.0928-0.21414 7.4491 0.35013zm-46.741 18.538c0.50382 0.45595 0.59837 1.0594 0.59837 3.8189 0 4.3924-0.08046 4.4774-4.2226 4.4637-4.3097-0.0143-4.2847 0.01198-4.2847-4.5085 0-3.1107 0.08174-3.6763 0.57261-3.9622 0.31493-0.18341 1.9598-0.338 3.6553-0.34345 2.4193-0.0077 3.2114 0.10659 3.681 0.53157zm46.429-0.20282c0.56905 0.30453 0.6329 0.71596 0.6329 4.0785 0 4.59 0.0724 4.5229-4.7109 4.3643-2.5044-0.08305-3.5578-0.25541-4.2213-0.6908-0.85771-0.56288-0.88402-0.67256-0.88402-3.6859v-3.1057l1.0634-0.64838c0.86896-0.52981 1.6507-0.6486 4.2752-0.6496 1.7665-6.72e-4 3.4966 0.15118 3.8447 0.3375z" fill="#fff"/></g></svg>
