<?xml version="1.0" encoding="UTF-8"?>
<!-- Created with Inkscape (http://www.inkscape.org/) -->
<svg id="svg37869" width="204" height="230" version="1.1" xmlns="http://www.w3.org/2000/svg" xmlns:cc="http://creativecommons.org/ns#" xmlns:dc="http://purl.org/dc/elements/1.1/" xmlns:rdf="http://www.w3.org/1999/02/22-rdf-syntax-ns#">
 <metadata id="metadata37874">
  <rdf:RDF>
   <cc:Work rdf:about="">
    <dc:format>image/svg+xml</dc:format>
    <dc:type rdf:resource="http://purl.org/dc/dcmitype/StillImage"/>
   </cc:Work>
  </rdf:RDF>
 </metadata>
 <g id="layer1" transform="translate(-542.94 -162.8)">
  <g id="g10838" transform="matrix(148.89 0 0 -148.89 447.19 107.81)">
   <text id="text2999" transform="scale(1,-1)" x="1.3587096" y="1.3289734" fill="#ffffff" font-family="'Comic Sans MS'" letter-spacing="0px" opacity=".1" word-spacing="0px" style="line-height:0%" xml:space="preserve"><tspan id="tspan3001" x="1.3587096" y="1.3289734" fill="#ffffff" font-family="'Comic Sans MS'" font-size=".96879px" style="line-height:1.25"> </tspan></text>
   <g id="g25" transform="matrix(.019914 0 0 -.019914 .88032 -.5403)" fill="#fff" opacity=".1">
    <metadata id="metadata7">
     <rdf:RDF>
      <cc:Work rdf:about="">
       <dc:format>image/svg+xml</dc:format>
       <dc:type rdf:resource="http://purl.org/dc/dcmitype/StillImage"/>
       <dc:title/>
      </cc:Work>
     </rdf:RDF>
    </metadata>
    <g id="layer1-7" transform="translate(-248.53 -301.05)" fill="#fff">
     <path id="path3839" d="m271.09 318.22c-2.6878 0-4.8554 2.1368-4.9062 4.8125h9.8438v-0.125c-0.13123-2.6207-2.3135-4.6875-4.9375-4.6875z"/>
     <path id="rect3049" d="m252 321.28c-1.9299 0-3.4688 1.6253-3.4688 3.625v22.781c0 1.9997 1.5388 3.5938 3.4688 3.5938h38.188c1.9299 0 3.5-1.594 3.5-3.5938v-22.781c0-1.9997-1.5701-3.625-3.5-3.625h-38.188zm1.6562 1.8438h34.625c1.7498 0 3.1562 1.2967 3.1562 2.9062v18.344c0 1.6095-1.4064 2.9062-3.1562 2.9062h-34.625c-1.7498 0-3.1562-1.2967-3.1562-2.9062v-18.344c0-1.6095 1.4064-2.9062 3.1562-2.9062z"/>
     <path id="path3877" d="m262.39 304.34 8.0812 16.92" stroke="#fff"/>
     <path id="path3839-4" transform="matrix(.43875 0 0 .43875 143.73 163.54)" d="m274.51 318.61a4.9245 4.9245 0 0 1-4.8629 4.9241 4.9245 4.9245 0 0 1-4.9846-4.8009 4.9245 4.9245 0 0 1 4.7382-5.0442 4.9245 4.9245 0 0 1 5.1031 4.6747"/>
     <path id="path3877-3" d="m280.32 304.22-8.0812 16.92" stroke="#fff"/>
     <path id="path3839-4-1" transform="matrix(.43875 0 0 .43875 162.54 163.42)" d="m274.51 318.61a4.9245 4.9245 0 0 1-4.8629 4.9241 4.9245 4.9245 0 0 1-4.9846-4.8009 4.9245 4.9245 0 0 1 4.7382-5.0442 4.9245 4.9245 0 0 1 5.1031 4.6747"/>
    </g>
   </g>
  </g>
 </g>
</svg>
